<svg width="1920" height="1189" viewBox="0 0 1920 1189" fill="none" xmlns="http://www.w3.org/2000/svg">
<path d="M493.567 559.503L493.568 1044.21L73.797 801.858L493.567 559.503Z" stroke="#EBEBEB"/>
<circle cx="73.0458" cy="801.629" r="4.41351" transform="rotate(-30 73.0458 801.629)" fill="#F2F2F2"/>
<circle cx="493.351" cy="1044.13" r="4.41351" transform="rotate(-30 493.351 1044.13)" fill="#F2F2F2"/>
<circle cx="493.489" cy="558.886" r="4.41351" transform="rotate(-30 493.489 558.886)" fill="#F2F2F2"/>
<path d="M606.894 66.6406L606.894 292.759L411.07 179.7L606.894 66.6406Z" stroke="#EBEBEB"/>
<path d="M1704.18 659.963L1704.18 433.845L1900.01 546.904L1704.18 659.963Z" stroke="#EBEBEB"/>
<path d="M1389.82 539L970.049 781.354L970.049 296.645L1389.82 539Z" stroke="#EBEBEB"/>
<circle cx="969.872" cy="295.88" r="4.41351" transform="rotate(30 969.872 295.88)" fill="#F2F2F2"/>
<circle cx="970.01" cy="781.126" r="4.41351" transform="rotate(30 970.01 781.126)" fill="#F2F2F2"/>
<circle cx="1390.32" cy="538.623" r="4.41351" transform="rotate(30 1390.32 538.623)" fill="#F2F2F2"/>
</svg>
