<svg xmlns="http://www.w3.org/2000/svg" xmlns:xlink="http://www.w3.org/1999/xlink"><symbol id="icon-fb" viewBox="0 0 27 27">
<path fill-rule="evenodd" clip-rule="evenodd" d="M27 13.5C27 6.04462 20.9562 0 13.5 0C6.04379 0 0 6.04462 0 13.5C0 20.9562 6.04369 27 13.5 27C20.9562 27 27 20.9563 27 13.5ZM16.8835 9.29395H15.1437C14.6754 9.29395 14.3464 9.69053 14.3464 10.185V10.9604H16.8312L16.4288 13.4772H14.3455V20.2238H11.8025V13.4772H10.115V10.9604H11.8025V9.677H11.8075C11.8523 8.21392 12.3602 6.82092 14.8383 6.73315V6.72388H16.8835V9.29395Z" fill="#CDCDCD"/>
</symbol><symbol id="icon-ok" viewBox="0 0 27 26">
<path d="M13.8512 10.957C14.8668 10.957 15.6568 10.1213 15.638 9.2113C15.6568 8.3013 14.8857 7.44702 13.87 7.44702C12.892 7.44702 12.0833 8.22702 12.0833 9.19273C12.0833 10.1584 12.8732 10.957 13.8512 10.957Z" fill="#CDCDCD"/>
<path d="M13.701 0C6.44113 0 0.5354 5.8314 0.5354 12.9999C0.5354 20.187 6.44113 25.9999 13.701 25.9999C20.9797 25.9999 26.8667 20.1685 26.8667 12.9999C26.8855 5.8314 20.9797 0 13.701 0ZM13.8891 4.9214C16.2589 4.9214 18.215 6.85282 18.1962 9.21138C18.1962 11.5885 16.2213 13.5014 13.8139 13.4642C11.4441 13.4271 9.54445 11.5142 9.54445 9.19281C9.54445 6.83425 11.4817 4.9214 13.8891 4.9214ZM18.7228 14.9499C18.7228 14.9871 18.704 15.0056 18.704 15.0428C18.6475 15.4142 18.4595 15.7114 18.1397 15.9156C17.9328 16.0456 17.7071 16.1756 17.4814 16.2871C16.9172 16.5656 16.3153 16.7885 15.6947 16.9371C15.6195 16.9556 15.6195 16.9556 15.6759 17.0113C16.0144 17.3456 16.3718 17.6985 16.7103 18.0328C17.1429 18.4599 17.5943 18.9056 18.0269 19.3328C18.6475 19.9456 18.4783 20.967 17.6883 21.3385C17.5567 21.4128 17.4062 21.4313 17.2558 21.4685C17.1805 21.4685 17.0865 21.4685 17.0112 21.4685C16.9924 21.4685 16.9736 21.4685 16.9736 21.4499C16.6727 21.4128 16.4282 21.2642 16.2025 21.0599C15.4502 20.317 14.679 19.5556 13.9267 18.8128C13.8703 18.7571 13.8703 18.7571 13.8139 18.8128C13.0427 19.5742 12.2904 20.317 11.5193 21.0785C11.3876 21.2085 11.256 21.3013 11.0867 21.3756C10.9739 21.4313 10.8422 21.4499 10.7294 21.4685C10.6541 21.4685 10.5789 21.4685 10.4849 21.4685C10.4472 21.4685 10.4284 21.4499 10.3908 21.4499C9.883 21.357 9.54445 21.0785 9.39399 20.5956C9.24352 20.1128 9.35637 19.6856 9.71373 19.3328C10.0335 19.017 10.3344 18.7199 10.6541 18.4042C11.1243 17.9399 11.5945 17.4756 12.0459 17.0299C12.1023 16.9742 12.1023 16.9742 12.0271 16.9556C12.0083 16.9556 11.9707 16.9371 11.9519 16.9371C11.1055 16.7328 10.3344 16.3985 9.60088 15.9528C9.16829 15.6742 8.9614 15.2656 9.01783 14.7642C9.11187 13.8356 10.1651 13.3342 10.9551 13.8356C11.1055 13.9285 11.2372 14.0028 11.4064 14.0771C12.2716 14.5042 13.1932 14.6899 14.1524 14.6342C14.6226 14.6156 15.0928 14.5228 15.563 14.3742C16.0144 14.2256 16.4094 14.0214 16.8232 13.7985C17.5003 13.4085 18.3842 13.7242 18.6475 14.4485C18.6852 14.5599 18.704 14.6528 18.7228 14.7642C18.7228 14.8199 18.7228 14.8756 18.7228 14.9499Z" fill="#CDCDCD"/>
</symbol><symbol id="icon-vk" viewBox="0 0 27 26">
<path d="M19.4047 15.1271C18.2958 14.1029 18.2166 14.1029 19.1671 12.9211C20.3551 11.4243 21.9392 9.53349 20.5135 9.53349H17.8998C17.4246 9.53349 17.3454 9.84862 17.187 10.2425C16.5534 11.7394 15.2861 13.709 14.8109 13.3938C14.3357 13.0787 14.5733 11.897 14.5733 10.0062C14.6525 9.76984 14.5733 9.53349 14.4149 9.37592C14.2565 9.21836 14.0189 9.06079 13.7813 9.06079C13.3853 8.98201 12.9893 8.90323 12.5932 8.90323C11.0884 8.90323 10.0588 9.53349 10.6132 9.61227C11.6428 9.76984 11.5636 11.9758 11.326 12.9211C10.93 14.5756 9.34593 11.6606 8.6331 10.1638C8.5539 9.76984 8.23709 9.53349 7.84108 9.53349H5.7818C5.46499 9.53349 5.22738 9.61227 5.22738 9.84862C5.22738 10.2425 7.20745 14.1029 9.02912 16.0725C10.8508 17.9632 12.6724 17.8057 13.9397 17.8057C14.0981 17.8057 14.2565 17.7269 14.3357 17.6481C14.4149 17.5693 14.4941 17.4118 14.4941 17.2542C14.4941 15.9937 14.9693 15.3634 15.8406 16.23C16.791 17.1754 17.0286 17.8057 18.2166 17.8057H20.3551C20.9095 17.8057 21.0679 17.6481 21.0679 17.4118C21.1471 16.8603 20.1967 15.8361 19.4047 15.1271ZM13.7813 0.000789162C21.1471 0.158354 27.0082 6.06705 26.929 13.2363C26.8497 20.4055 20.7511 26.0778 13.3853 25.9991C5.94021 25.9203 0 20.1691 0 12.9999C0.0792028 5.75192 6.25702 -0.0779935 13.7813 0.000789162Z" fill="#CDCDCD"/>
</symbol></svg>