<svg width="27" height="26" viewBox="0 0 27 26" fill="none" xmlns="http://www.w3.org/2000/svg">
<path d="M19.4047 15.1271C18.2958 14.1029 18.2166 14.1029 19.1671 12.9211C20.3551 11.4243 21.9392 9.53349 20.5135 9.53349H17.8998C17.4246 9.53349 17.3454 9.84862 17.187 10.2425C16.5534 11.7394 15.2861 13.709 14.8109 13.3938C14.3357 13.0787 14.5733 11.897 14.5733 10.0062C14.6525 9.76984 14.5733 9.53349 14.4149 9.37592C14.2565 9.21836 14.0189 9.06079 13.7813 9.06079C13.3853 8.98201 12.9893 8.90323 12.5932 8.90323C11.0884 8.90323 10.0588 9.53349 10.6132 9.61227C11.6428 9.76984 11.5636 11.9758 11.326 12.9211C10.93 14.5756 9.34593 11.6606 8.6331 10.1638C8.5539 9.76984 8.23709 9.53349 7.84108 9.53349H5.7818C5.46499 9.53349 5.22738 9.61227 5.22738 9.84862C5.22738 10.2425 7.20745 14.1029 9.02912 16.0725C10.8508 17.9632 12.6724 17.8057 13.9397 17.8057C14.0981 17.8057 14.2565 17.7269 14.3357 17.6481C14.4149 17.5693 14.4941 17.4118 14.4941 17.2542C14.4941 15.9937 14.9693 15.3634 15.8406 16.23C16.791 17.1754 17.0286 17.8057 18.2166 17.8057H20.3551C20.9095 17.8057 21.0679 17.6481 21.0679 17.4118C21.1471 16.8603 20.1967 15.8361 19.4047 15.1271ZM13.7813 0.000789162C21.1471 0.158354 27.0082 6.06705 26.929 13.2363C26.8497 20.4055 20.7511 26.0778 13.3853 25.9991C5.94021 25.9203 0 20.1691 0 12.9999C0.0792028 5.75192 6.25702 -0.0779935 13.7813 0.000789162Z" fill="#CDCDCD"/>
</svg>
